<?xml version="1.0" standalone="no"?>
<!DOCTYPE svg PUBLIC "-//W3C//DTD SVG 20010904//EN"
 "http://www.w3.org/TR/2001/REC-SVG-20010904/DTD/svg10.dtd">
<svg version="1.0" xmlns="http://www.w3.org/2000/svg"
 width="700.000000pt" height="700.000000pt" viewBox="0 0 700.000000 700.000000"
 preserveAspectRatio="xMidYMid meet">
<metadata>
Created by potrace 1.14, written by Peter Selinger 2001-2017
</metadata>
<g transform="translate(0.000000,700.000000) scale(0.100000,-0.100000)"
fill="#000000" stroke="none">
<path d="M4557 5144 c-2 -3 -87 -6 -188 -7 -253 -4 -263 -11 -244 -166 8 -60
34 -115 73 -148 14 -12 64 -34 111 -48 151 -47 194 -85 235 -207 32 -97 40
-322 22 -598 -11 -155 -11 -371 -2 -580 4 -80 9 -188 11 -240 2 -52 7 -140 10
-195 4 -55 8 -127 10 -160 2 -33 7 -114 12 -180 10 -160 10 -463 0 -548 -9
-74 -39 -178 -61 -212 -8 -12 -55 -37 -108 -58 -99 -39 -168 -88 -193 -138
-20 -38 -21 -98 -2 -134 38 -74 97 -105 175 -90 20 4 60 9 87 11 103 8 183 14
265 21 137 13 387 8 480 -8 138 -24 214 0 254 81 21 41 12 116 -19 160 -28 40
-164 167 -176 163 -3 -1 -23 15 -43 36 -43 44 -42 38 -52 316 -14 353 -7 891
11 1000 7 42 95 120 193 172 193 103 356 116 443 34 46 -42 100 -205 115 -346
3 -30 7 -180 8 -333 1 -153 5 -283 8 -288 8 -13 21 -153 22 -244 1 -64 -4
-127 -18 -240 -8 -64 -32 -150 -42 -150 -3 0 -42 -9 -87 -21 -117 -30 -172
-62 -198 -116 -48 -99 9 -198 127 -221 140 -28 399 -45 674 -45 348 0 419 17
486 118 38 58 27 129 -29 182 -42 40 -75 57 -172 92 -62 22 -83 35 -94 56 -10
21 -12 78 -10 249 9 724 3 1178 -16 1266 -3 14 -8 43 -11 64 -10 64 -52 176
-80 215 -101 136 -269 223 -481 250 -71 9 -260 7 -318 -3 -16 -3 -50 -8 -75
-11 -88 -12 -251 -55 -297 -79 -27 -13 -75 -45 -108 -69 -33 -25 -61 -44 -63
-43 -1 2 -5 221 -7 487 -6 667 -12 766 -48 859 -37 92 -46 95 -339 97 -136 0
-249 -1 -251 -3z"/>
<path d="M3295 5119 c-68 -8 -81 -15 -99 -54 -20 -41 -12 -89 20 -114 23 -18
24 -21 29 -272 7 -304 17 -612 30 -979 27 -717 27 -1476 0 -1750 -2 -19 -6
-91 -10 -160 -4 -69 -9 -150 -12 -180 -8 -120 -11 -650 -2 -720 16 -139 19
-159 43 -230 54 -158 147 -209 265 -144 104 56 115 116 115 634 0 146 -3 468
-7 715 -7 412 -9 535 -22 980 -21 752 -26 1455 -12 1655 9 128 10 322 2 390
-9 73 -34 148 -58 173 -55 60 -132 75 -282 56z"/>
<path d="M587 3924 c-1 -1 -42 -5 -92 -8 -49 -4 -103 -9 -120 -11 -49 -7 -115
-14 -205 -21 -47 -3 -93 -10 -102 -15 -26 -14 -40 -46 -44 -98 -8 -108 55
-201 178 -264 131 -68 156 -101 184 -244 23 -123 29 -260 29 -688 0 -639 -10
-690 -147 -775 -111 -69 -157 -126 -158 -199 0 -73 44 -126 120 -144 41 -10
266 -21 405 -20 123 0 390 12 424 18 28 5 111 16 116 16 11 -1 97 40 109 52
41 41 47 103 15 149 -12 17 -65 59 -118 94 -53 34 -103 69 -112 76 -21 17 -47
68 -54 104 -2 16 -7 40 -10 54 -12 55 -25 160 -32 260 -15 204 -8 715 11 771
3 8 8 32 11 54 16 117 60 181 174 254 160 102 357 119 451 39 83 -70 129 -250
155 -603 3 -44 8 -98 10 -120 2 -22 7 -74 11 -115 3 -41 8 -88 10 -105 6 -37
6 -329 0 -370 -17 -138 -14 -132 -121 -217 -83 -65 -132 -119 -151 -164 -16
-39 -18 -102 -4 -139 14 -36 73 -93 107 -102 34 -10 841 -10 900 -1 113 18
201 106 190 189 -10 76 -63 117 -239 189 -49 20 -59 29 -70 59 -12 36 -14 264
-8 936 1 154 0 307 -4 340 -11 112 -18 170 -21 175 -2 3 -6 26 -10 50 -10 71
-60 210 -99 277 -69 117 -180 198 -331 239 -80 22 -294 26 -405 8 -194 -31
-362 -102 -467 -196 -35 -32 -65 -58 -66 -58 -1 0 -3 24 -4 53 -2 101 -69 194
-157 218 -29 8 -250 10 -259 3z"/>
</g>
</svg>
