<?xml version="1.0" standalone="no"?>
<!DOCTYPE svg PUBLIC "-//W3C//DTD SVG 20010904//EN"
 "http://www.w3.org/TR/2001/REC-SVG-20010904/DTD/svg10.dtd">
<svg version="1.0" xmlns="http://www.w3.org/2000/svg"
 width="700.000000pt" height="700.000000pt" viewBox="0 0 700.000000 700.000000"
 preserveAspectRatio="xMidYMid meet">
<metadata>
Created by potrace 1.14, written by Peter Selinger 2001-2017
</metadata>
<g transform="translate(0.000000,700.000000) scale(0.100000,-0.100000)"
fill="#000000" stroke="none">
<path d="M4556 5453 c-2 -2 -103 -5 -226 -8 -180 -4 -228 -8 -247 -20 -28 -18
-42 -51 -37 -80 3 -11 6 -39 9 -62 10 -96 56 -142 175 -179 112 -34 154 -62
186 -126 14 -28 28 -60 30 -72 2 -12 6 -32 9 -46 20 -90 24 -269 10 -470 -14
-195 -9 -585 10 -885 3 -38 7 -104 9 -145 3 -41 8 -121 12 -177 3 -56 8 -126
9 -155 5 -77 6 -369 1 -393 -2 -11 -7 -42 -10 -70 -19 -129 -53 -198 -106
-210 -56 -12 -166 -73 -198 -109 -57 -65 -57 -144 -1 -203 39 -39 80 -53 130
-42 19 5 81 11 136 14 55 3 110 7 121 10 35 6 242 18 313 18 69 -1 167 -10
179 -18 18 -11 138 -13 170 -3 97 30 135 135 80 224 -21 34 -152 154 -168 154
-13 0 -72 67 -73 83 -6 65 -8 108 -15 282 -12 321 -6 797 11 885 11 55 88 123
211 184 138 68 271 83 346 39 48 -27 93 -110 119 -216 19 -79 23 -126 26 -337
2 -135 9 -297 15 -360 23 -226 14 -455 -22 -565 -10 -29 -18 -34 -73 -49 -119
-32 -139 -40 -179 -76 -38 -33 -41 -39 -41 -90 -2 -120 60 -157 288 -175 33
-2 89 -7 124 -11 97 -10 496 -12 589 -2 46 4 97 14 115 23 52 25 95 72 108
117 9 37 8 48 -9 84 -12 23 -36 53 -54 67 -32 23 -181 87 -205 87 -24 0 -36
73 -33 219 10 632 4 1120 -15 1226 -3 17 -8 44 -11 60 -42 231 -205 374 -479
421 -89 15 -305 12 -395 -5 -30 -6 -66 -12 -80 -15 -132 -22 -207 -53 -303
-124 -33 -24 -60 -42 -62 -40 -2 2 -6 228 -9 503 -3 275 -8 536 -11 580 -11
159 -50 237 -128 251 -39 7 -345 13 -351 7z"/>
<path d="M3348 5435 c-2 -2 -29 -5 -60 -8 -64 -5 -85 -17 -103 -61 -15 -35 -3
-79 25 -99 17 -12 19 -36 25 -272 3 -143 8 -303 10 -355 2 -52 6 -189 10 -305
3 -115 8 -246 10 -290 24 -479 24 -1230 0 -1535 -2 -30 -7 -93 -10 -140 -3
-47 -8 -125 -11 -175 -10 -151 -13 -670 -4 -716 5 -24 13 -76 20 -116 14 -85
57 -181 95 -211 59 -46 146 -38 208 21 43 40 56 83 64 212 14 196 3 1181 -22
2005 -19 644 -23 1168 -11 1420 22 438 2 550 -106 606 -26 13 -131 27 -140 19z"/>
<path d="M758 4315 c-2 -2 -43 -6 -93 -9 -49 -4 -106 -9 -125 -11 -19 -2 -69
-7 -110 -10 -113 -9 -124 -11 -147 -24 -32 -17 -43 -43 -43 -101 0 -101 57
-177 182 -242 109 -56 136 -96 157 -228 20 -129 26 -272 25 -660 0 -333 -3
-410 -18 -491 -9 -53 -26 -110 -36 -126 -10 -17 -49 -51 -87 -75 -91 -60 -131
-102 -141 -152 -9 -41 3 -91 29 -122 21 -25 80 -44 156 -51 158 -14 622 -6
728 12 144 25 186 47 204 107 19 63 -5 99 -118 174 -115 75 -125 83 -138 109
-11 22 -30 97 -39 159 -3 21 -7 47 -9 58 -19 95 -27 596 -13 758 18 197 36
251 107 320 92 90 219 144 341 144 117 0 171 -36 220 -148 24 -54 56 -204 65
-306 3 -41 8 -95 10 -120 2 -25 7 -81 11 -125 3 -44 8 -88 9 -97 16 -80 22
-350 11 -472 -9 -103 -25 -136 -94 -187 -93 -71 -132 -110 -152 -155 -56 -122
15 -234 153 -243 93 -7 556 -5 688 2 94 4 123 10 155 28 106 60 136 133 87
209 -26 40 -47 52 -178 109 -27 12 -57 25 -65 30 -34 18 -39 85 -34 491 9 693
7 748 -31 942 -41 212 -133 359 -266 425 -108 53 -162 65 -309 69 -74 2 -155
-1 -180 -6 -25 -4 -58 -10 -75 -13 -127 -20 -299 -98 -385 -176 l-55 -50 -6
58 c-7 76 -34 126 -88 165 -43 31 -44 31 -172 32 -71 1 -130 0 -131 -1z"/>
</g>
</svg>
